<?xml version="1.0" encoding="UTF-8"?>
<svg xmlns="http://www.w3.org/2000/svg" viewBox="0 0 1200 630" width="1200" height="630">
  <defs>
    <linearGradient id="g51221" x1="79.38926261462365%" y1="9.54915028125263%" x2="20.61073738537635%" y2="90.45084971874738%">
      <stop offset="0%" stop-color="#D97706"/>
      <stop offset="100%" stop-color="#B45309"/>
    </linearGradient>
  </defs>
  <rect width="1200" height="630" fill="url(#g51221)"/>
  <polygon points="352.4484973587096,258.1007454963401 422.4484973587096,218.1007454963401 492.4484973587096,258.1007454963401 422.4484973587096,298.1007454963401" fill="rgba(255,255,255,0.08)" stroke="rgba(255,255,255,0.15)" stroke-width="2"/><line x1="482.4484973587096" y1="263.1007454963401" x2="482.4484973587096" y2="318.1007454963401" stroke="rgba(255,255,255,0.12)" stroke-width="2"/><path d="M 855.1107072737068 381.8267950043082 C 825.1107072737068 371.8267950043082 775.1107072737068 376.8267950043082 765.1107072737068 311.8267950043082 L 855.1107072737068 321.8267950043082 L 945.1107072737068 311.8267950043082 C 935.1107072737068 376.8267950043082 885.1107072737068 371.8267950043082 855.1107072737068 381.8267950043082 Z" fill="rgba(255,255,255,0.06)" stroke="rgba(255,255,255,0.12)" stroke-width="1.5"/><line x1="855.1107072737068" y1="381.8267950043082" x2="855.1107072737068" y2="321.8267950043082" stroke="rgba(255,255,255,0.12)" stroke-width="1.5"/><rect x="237.32915034051985" y="358.53961531072855" width="8" height="100" rx="1" fill="rgba(255,255,255,0.1)" transform="rotate(40.3068236913532 237.32915034051985 358.53961531072855)"/><circle cx="963.6403150856495" cy="224.64472275227308" r="30" fill="none" stroke="rgba(255,255,255,0.12)" stroke-width="2"/><line x1="953.6403150856495" y1="254.64472275227308" x2="973.6403150856495" y2="254.64472275227308" stroke="rgba(255,255,255,0.1)" stroke-width="2"/><line x1="955.6403150856495" y1="261.6447227522731" x2="971.6403150856495" y2="261.6447227522731" stroke="rgba(255,255,255,0.1)" stroke-width="2"/><circle cx="644.5362983038649" cy="508.2856437074952" r="3.548416060395539" fill="rgba(255,255,255,0.09102374540641904)"/><circle cx="664.1252761473879" cy="439.60499559296295" r="5.328066995367408" fill="rgba(255,255,255,0.1102830783650279)"/><circle cx="88.53224231861532" cy="324.1962356399745" r="2.4726074561476707" fill="rgba(255,255,255,0.06182264938950539)"/><circle cx="275.3949814243242" cy="439.7198905958794" r="2.0742964753881097" fill="rgba(255,255,255,0.07242569919675589)"/><circle cx="1086.1189802642912" cy="441.88692334108055" r="3.329823519103229" fill="rgba(255,255,255,0.09425497079268098)"/><circle cx="59.50766974128783" cy="128.95893086213619" r="3.1723577054217458" fill="rgba(255,255,255,0.1187920050881803)"/><circle cx="651.7734977416694" cy="83.52965036872774" r="2.5911402255296707" fill="rgba(255,255,255,0.09968972694128753)"/><circle cx="763.276303675957" cy="128.1524577178061" r="5.423808128573" fill="rgba(255,255,255,0.06704688860103489)"/><circle cx="1074.8684459831566" cy="97.03549270750955" r="5.3138023521751165" fill="rgba(255,255,255,0.04643870439380408)"/><circle cx="388.416314474307" cy="200.93056184938177" r="5.430683922953904" fill="rgba(255,255,255,0.11147163948044181)"/><circle cx="990.0679955724627" cy="256.8337237276137" r="5.221063772216439" fill="rgba(255,255,255,0.05933503502979875)"/><circle cx="680.4401511559263" cy="82.52386707812548" r="2.8958937460556626" fill="rgba(255,255,255,0.07164326025173068)"/><circle cx="576.8943020375445" cy="395.6285367417149" r="3.1427793400362134" fill="rgba(255,255,255,0.043556215390563015)"/><circle cx="774.600070854649" cy="443.2497348729521" r="2.2397839101031423" fill="rgba(255,255,255,0.042600604705512524)"/><circle cx="979.8701334511861" cy="303.33842917811126" r="4.144210375845432" fill="rgba(255,255,255,0.10072728037834168)"/>
  <circle cx="182.01378034427762" cy="92.57109408499673" r="1.5939642172306776" fill="rgba(255,255,255,0.033198122640606016)"/><circle cx="99.02740828692913" cy="474.63533165864646" r="1.2882017269730568" fill="rgba(255,255,255,0.044945498481392857)"/><circle cx="851.9185085780919" cy="322.8508680732921" r="1.8499099961481988" fill="rgba(255,255,255,0.07844202898675576)"/><circle cx="1177.1015158854425" cy="49.75635883631185" r="2.604319200851023" fill="rgba(255,255,255,0.036864341639447955)"/><circle cx="502.5655117817223" cy="432.9067399352789" r="2.4050957509316504" fill="rgba(255,255,255,0.04897012781118974)"/><circle cx="294.3372149951756" cy="500.6640196032822" r="1.9664810141548514" fill="rgba(255,255,255,0.04106543591013178)"/><circle cx="450.4701088182628" cy="418.4127804846503" r="1.7232443001121283" fill="rgba(255,255,255,0.07933132303413004)"/><circle cx="1058.0705037340522" cy="505.69662612397224" r="2.3253824412822723" fill="rgba(255,255,255,0.06145065034041181)"/><circle cx="1034.0973235666752" cy="27.465144647285342" r="1.7243904531933367" fill="rgba(255,255,255,0.039903307841159405)"/><circle cx="798.2913997024298" cy="50.80551631283015" r="2.342473034746945" fill="rgba(255,255,255,0.03579027325147763)"/><circle cx="679.304289445281" cy="23.705939173232764" r="2.5655833929777145" fill="rgba(255,255,255,0.03439163150731474)"/><circle cx="114.10660464316607" cy="147.33423525933176" r="1.0553069319576025" fill="rgba(255,255,255,0.07464659205405041)"/><circle cx="1013.899299222976" cy="182.86749710328877" r="1.7060351031832397" fill="rgba(255,255,255,0.03139619183028117)"/><circle cx="569.6430888958275" cy="573.8735922519118" r="1.8537525907158852" fill="rgba(255,255,255,0.038908964204601944)"/><circle cx="468.29617135226727" cy="7.873017399106175" r="1.8189030289649963" fill="rgba(255,255,255,0.03281914719380438)"/><circle cx="1152.114933449775" cy="439.3219191930257" r="1.9036388262175024" fill="rgba(255,255,255,0.04306471783900633)"/><circle cx="907.3433985002339" cy="532.9796257498674" r="1.1512331133708358" fill="rgba(255,255,255,0.052208260640036315)"/><circle cx="711.4059143699706" cy="561.5006238198839" r="2.7954694628715515" fill="rgba(255,255,255,0.0334544900408946)"/><circle cx="907.9990306869149" cy="62.13673550868407" r="1.3281017835251987" fill="rgba(255,255,255,0.044995999890379605)"/><circle cx="306.12162463366985" cy="21.23415561625734" r="2.71043978119269" fill="rgba(255,255,255,0.056766109827440236)"/>
  <text x="600" y="335" font-family="system-ui, -apple-system, 'Segoe UI', sans-serif" font-size="68" font-weight="700" fill="rgba(0,0,0,0.15)" text-anchor="middle" letter-spacing="1">ICSE Class 10</text>
  <text x="600" y="332" font-family="system-ui, -apple-system, 'Segoe UI', sans-serif" font-size="68" font-weight="700" fill="white" text-anchor="middle" letter-spacing="1">ICSE Class 10</text>
  <g transform="translate(1140, 575)">
    <rect x="0" y="0" width="40" height="40" rx="8" fill="rgba(255,255,255,0.15)"/>
    <text x="20" y="29" font-family="sans-serif" font-weight="bold" font-size="24" fill="rgba(255,255,255,0.6)" text-anchor="middle">K</text>
  </g>
</svg>